{"title":"Nude.Nuns.With.Big.Guns.2010.FESTiVAL.DvDRip.H264.Feel-Free","uid":6063307,"size":735094221,"categoryP":"video","categoryS":"movies","magnet":"?xt=urn:btih:0216be3d6946098d0883bb5c9d3c126a09694746&amp;dn=Nude.Nuns.With.Big.Guns.2010.FESTiVAL.DvDRip.H264.Feel-Free&amp;tr=udp%3A%2F%2Ftracker.openbittorrent.com%3A80&amp;tr=udp%3A%2F%2Fopen.demonii.com%3A1337&amp;tr=udp%3A%2F%2Ftracker.coppersurfer.tk%3A6969&amp;tr=udp%3A%2F%2Fexodus.desync.com%3A6969","seeders":0,"leechers":1,"uploader":"hiest","files":-1,"time":1293215177,"description":"Genre:Thriller\nLanguage:English\nIMDb:http://www.imdb.com/title/tt1352388/\nSource:PAL.DVDR\n\n\n\nFormat : MPEG-4\nFormat profile : Base Media\nCodec ID : isom\nFile size : 699 MiB\nDuration : 1h 28mn\nOverall bit rate : 1 110 Kbps\n\n\nVideo\nCodec ID : avc1\nCodec ID/Info : Advanced Video Coding\nDuration : 1h 28mn\nBit rate mode : Variable\nBit rate : 943 Kbps\nWidth : 720 pixels\nHeight : 384 pixels\nDisplay aspect ratio : 1.875\nFrame rate mode : Constant\nFrame rate : 23.976 fps\nOriginal frame rate : 23.000 fps\nColor space : YUV\nChroma subsampling : 4:2:0\nBit depth : 8 bits\nScan type : Progressive\nBits/(Pixel*Frame) : 0.142\nStream size : 594 MiB (85%)\nWriting library : Ã‚Â¼)c\nLanguage : English\n\nAudio\nID : 1\nFormat : AAC\nFormat/Info : Advanced Audio Codec\nFormat version : Version 4\nFormat profile : LC\nCodec ID : 40\nDuration : 1h 28mn\nBit rate mode : Constant\nBit rate : 160 Kbps\nChannel(s) : 2 channels\nChannel positions : Front: L R\nSampling rate : 48.0 KHz\nStream size : 101 MiB (14%)\nLanguage : English\n\n\n\nPlot:\nUpon taking her vows to become a nun, Sister Sarah is abused, brainwashed and drugged into submission by the corrupt clergy\n\nGreets:\n\nINK,CRYS,IMAGINE,LKRG,FXG,3Li,FLAWL3SS,TA,ViSiON,LU,PrisM,Noir,WBZ,LAP,Rx,Kingdom,SAFCuk009+Fabreezy,HDLiTE,TWiZTED,ExtraTorrentRG.ELEKTRI4KA,MAGNAT,CM8\nAnd to all the other p2p grps past and present\n\n\n\n\n\n================================== &lt;a href=&quot;\nhttp://thepiratebay.se/user/hiest&quot; rel=&quot;nofollow&quot; target=&quot;_NEW&quot;&gt;\nhttp://thepiratebay.se/user/hiest&lt;/a&gt;\n==================================\n\n\n\n\n\nScreenshots:\n &lt;a href=&quot;\nhttp://rapidhdd.com/images/272402vlcsnap-2010-12-24-19h20m36s172.png&quot; rel=&quot;nofollow&quot; target=&quot;_NEW&quot;&gt;\nhttp://rapidhdd.com/images/272402vlcsnap-2010-12-24-19h20m36s172.png&lt;/a&gt;\n &lt;a href=&quot;\nhttp://www.rapidhdd.com/images/947509vlcsnap-2010-12-24-19h20m49s44.png&quot; rel=&quot;nofollow&quot; target=&quot;_NEW&quot;&gt;\nhttp://www.rapidhdd.com/images/947509vlcsnap-2010-12-24-19h20m49s44.png&lt;/a&gt;\n &lt;a href=&quot;\nhttp://www.rapidhdd.com/images/568142vlcsnap-2010-12-24-19h21m04s190.png&quot; rel=&quot;nofollow&quot; target=&quot;_NEW&quot;&gt;\nhttp://www.rapidhdd.com/images/568142vlcsnap-2010-12-24-19h21m04s190.png&lt;/a&gt;\n &lt;a href=&quot;\nhttp://www.rapidhdd.com/images/432938vlcsnap-2010-12-24-19h20m57s131.png&quot; rel=&quot;nofollow&quot; target=&quot;_NEW&quot;&gt;\nhttp://www.rapidhdd.com/images/432938vlcsnap-2010-12-24-19h20m57s131.png&lt;/a&gt;\n &lt;a href=&quot;\nhttp://www.rapidhdd.com/images/838548vlcsnap-2010-12-24-19h21m21s106.png&quot; rel=&quot;nofollow&quot; target=&quot;_NEW&quot;&gt;\nhttp://www.rapidhdd.com/images/838548vlcsnap-2010-12-24-19h21m21s106.png&lt;/a&gt;\n &lt;a href=&quot;\nhttp://www.rapidhdd.com/images/533620vlcsnap-2010-12-24-19h21m57s206.png&quot; rel=&quot;nofollow&quot; target=&quot;_NEW&quot;&gt;\nhttp://www.rapidhdd.com/images/533620vlcsnap-2010-12-24-19h21m57s206.png&lt;/a&gt;","torrent":{"xt":"urn:btih:0216be3d6946098d0883bb5c9d3c126a09694746","amp;dn":"Nude.Nuns.With.Big.Guns.2010.FESTiVAL.DvDRip.H264.Feel-Free","amp;tr":["udp%3A%2F%2Ftracker.openbittorrent.com%3A80","udp%3A%2F%2Fopen.demonii.com%3A1337","udp%3A%2F%2Ftracker.coppersurfer.tk%3A6969","udp%3A%2F%2Fexodus.desync.com%3A6969"],"infoHash":"0216be3d6946098d0883bb5c9d3c126a09694746","infoHashBuffer":{"type":"Buffer","data":[2,22,190,61,105,70,9,141,8,131,187,92,157,60,18,106,9,105,71,70]},"announce":[],"urlList":[]}}